{"title":"LinusTechTips.Scrapyard.Wars.S03E01.WEBDL.x264.milfWEED.mp4","uid":12552336,"size":624624140,"categoryP":"video","categoryS":"tv_shows","magnet":"?xt=urn:btih:884221e08407d244156a0c4baa3aa025cbf9cc4f&amp;dn=LinusTechTips.Scrapyard.Wars.S03E01.WEBDL.x264.milfWEED.mp4&amp;tr=udp%3A%2F%2Ftracker.leechers-paradise.org%3A6969&amp;tr=udp%3A%2F%2Fzer0day.ch%3A1337&amp;tr=udp%3A%2F%2Fopen.demonii.com%3A1337&amp;tr=udp%3A%2F%2Ftracker.coppersurfer.tk%3A6969&amp;tr=udp%3A%2F%2Fexodus.desync.com%3A6969","seeders":0,"leechers":0,"uploader":"Kwibjo","files":1,"time":1444570508,"description":"Published on 10/11/2015\r\nOriginal title: BEST Bang for the Buck PC Challenge - Scrapyard Wars Season 3 - Episode 1\r\n\r\n--------------Vessel description--------------\r\nWith no maximum budget, season 3’s challenge may prove to be the most difficult one yet! The competitors need to make every dollar count because the winner will be the one who ends up with the most performance per dollar spent!\r\n\r\nPricing &amp; discussion: http://linustechtips.com/main/topic/465129-scrapyard-wars-season-3-with-scrappy-guest-austin-evans/\r\n\r\nSponsor link: http://dbrand.com/SYW\r\n\r\nSupport us: http://linustechtips.com/main/topic/75969-support-linus-tech-tips-our-affiliates-and-sponsors/\r\n\r\nJoin our community forum:\n\r\n\r\n\r\nMusic Credit: MASSIVE thanks to Approaching Nirvana for putting together some custom theme music for us. They are serious bros and ya’ll need to check them out here: \r\n\r\n\r\n\r\n--------------Media info--------------\r\nGeneral\r\nComplete name                            : LinusTechTips.Scrapyard.Wars.S03E01.WEBDL.x264.milfWEED.mp4\r\nFormat                                   : MPEG-4\r\nFormat profile                           : Base Media\r\nCodec ID                                 : isom\r\nFile size                                : 596 MiB\r\nDuration                                 : 16mn 46s\r\nOverall bit rate mode                    : Variable\r\nOverall bit rate                         : 4 966 Kbps\r\nEncoded date                             : UTC 2015-10-11 07:25:25\r\nTagged date                              : UTC 2015-10-11 07:25:25\r\n\r\nVideo\r\nID                                       : 1\r\nFormat                                   : AVC\r\nFormat/Info                              : Advanced Video Codec\r\nFormat profile                           :   \r\nFormat settings, CABAC                   : Yes\r\nFormat settings, ReFrames                : 4 frames\r\nCodec ID                                 : avc1\r\nCodec ID/Info                            : Advanced Video Coding\r\nDuration                                 : 16mn 46s\r\nBit rate                                 : 4 802 Kbps\r\nMaximum bit rate                         : 17.1 Mbps\r\nWidth                                    : 1 920 pixels\r\nHeight                                   : 1 080 pixels\r\nDisplay aspect ratio                     : 16:9\r\nFrame rate mode                          : Constant\r\nFrame rate                               : 29.970 fps\r\nColor space                              : YUV\r\nChroma subsampling                       : 4:2:0\r\nBit depth                                : 8 bits\r\nScan type                                : Progressive\r\nBits/(Pixel*Frame)                       : 0.077\r\nStream size                              : 576 MiB (97%)\r\nWriting library                          : Zencoder Video Encoding System\r\nEncoded date                             : UTC 2015-10-11 07:13:08\r\nTagged date                              : UTC 2015-10-11 07:25:26\r\nColor range                              : Limited\r\nColor primaries                          : BT.709\r\nTransfer characteristics                 : BT.709\r\nMatrix coefficients                      : BT.709\r\n\r\nAudio\r\nID                                       : 2\r\nFormat                                   : AAC\r\nFormat/Info                              : Advanced Audio Codec\r\nFormat profile                           : LC\r\nCodec ID                                 : 40\r\nDuration                                 : 16mn 46s\r\nBit rate mode                            : Variable\r\nBit rate                                 : 160 Kbps\r\nMaximum bit rate                         : 187 Kbps\r\nChannel(s)                               : 2 channels\r\nChannel positions                        : Front: L R\r\nSampling rate                            : 48.0 KHz\r\nCompression mode                         : Lossy\r\nStream size                              : 19.2 MiB (3%)\r\nEncoded date                             : UTC 2015-10-11 07:01:12\r\nTagged date                              : UTC 2015-10-11 07:25:26","torrent":{"xt":"urn:btih:884221e08407d244156a0c4baa3aa025cbf9cc4f","amp;dn":"LinusTechTips.Scrapyard.Wars.S03E01.WEBDL.x264.milfWEED.mp4","amp;tr":["udp%3A%2F%2Ftracker.leechers-paradise.org%3A6969","udp%3A%2F%2Fzer0day.ch%3A1337","udp%3A%2F%2Fopen.demonii.com%3A1337","udp%3A%2F%2Ftracker.coppersurfer.tk%3A6969","udp%3A%2F%2Fexodus.desync.com%3A6969"],"infoHash":"884221e08407d244156a0c4baa3aa025cbf9cc4f","infoHashBuffer":{"type":"Buffer","data":[136,66,33,224,132,7,210,68,21,106,12,75,170,58,160,37,203,249,204,79]},"announce":[],"urlList":[]}}